<mxfile host="app.diagrams.net" agent="Mozilla/5.0 (X11; Linux x86_64) AppleWebKit/537.36 (KHTML, like Gecko) Chrome/127.0.0.0 Safari/537.36" version="24.7.7">
  <diagram name="PÃ¡gina-1" id="luf2CUgg5LzOQk7it8L8">
    <mxGraphModel>
      <root>
        <mxCell id="0" />
        <mxCell id="1" parent="0" />
        <mxCell id="2" value="Raspberry_Pi" style="whiteSpace=wrap;strokeWidth=2;verticalAlign=top;" vertex="1" parent="1">
          <mxGeometry x="120" width="1489" height="83" as="geometry" />
        </mxCell>
        <mxCell id="3" value="Monitor" style="whiteSpace=wrap;strokeWidth=2;" vertex="1" parent="2">
          <mxGeometry x="43" y="34" width="69" height="32" as="geometry" />
        </mxCell>
        <mxCell id="4" value="Keyboard" style="whiteSpace=wrap;strokeWidth=2;" vertex="1" parent="2">
          <mxGeometry x="162" y="34" width="84" height="32" as="geometry" />
        </mxCell>
        <mxCell id="5" value="Mouse" style="whiteSpace=wrap;strokeWidth=2;" vertex="1" parent="2">
          <mxGeometry x="296" y="34" width="63" height="32" as="geometry" />
        </mxCell>
        <mxCell id="6" value="Ethernet" style="whiteSpace=wrap;strokeWidth=2;" vertex="1" parent="2">
          <mxGeometry x="409" y="34" width="76" height="32" as="geometry" />
        </mxCell>
        <mxCell id="7" value="WiFi" style="whiteSpace=wrap;strokeWidth=2;" vertex="1" parent="2">
          <mxGeometry x="535" y="34" width="47" height="32" as="geometry" />
        </mxCell>
        <mxCell id="8" value="Bluetooth" style="whiteSpace=wrap;strokeWidth=2;" vertex="1" parent="2">
          <mxGeometry x="632" y="34" width="83" height="32" as="geometry" />
        </mxCell>
        <mxCell id="9" value="USB_Port1" style="whiteSpace=wrap;strokeWidth=2;" vertex="1" parent="2">
          <mxGeometry x="764" y="33" width="95" height="33" as="geometry" />
        </mxCell>
        <mxCell id="10" value="USB_Port2" style="whiteSpace=wrap;strokeWidth=2;" vertex="1" parent="2">
          <mxGeometry x="909" y="33" width="95" height="33" as="geometry" />
        </mxCell>
        <mxCell id="11" value="HDMI_Port" style="whiteSpace=wrap;strokeWidth=2;" vertex="1" parent="2">
          <mxGeometry x="1055" y="33" width="95" height="33" as="geometry" />
        </mxCell>
        <mxCell id="12" value="GPIO_Pins" style="whiteSpace=wrap;strokeWidth=2;" vertex="1" parent="2">
          <mxGeometry x="1199" y="33" width="95" height="33" as="geometry" />
        </mxCell>
        <mxCell id="13" value="Power_Supply" style="whiteSpace=wrap;strokeWidth=2;" vertex="1" parent="2">
          <mxGeometry x="1344" y="33" width="118" height="33" as="geometry" />
        </mxCell>
        <mxCell id="14" value="Internet" style="whiteSpace=wrap;strokeWidth=2;" vertex="1" parent="1">
          <mxGeometry y="26" width="70" height="32" as="geometry" />
        </mxCell>
        <mxCell id="15" value="" style="curved=1;startArrow=none;endArrow=block;exitX=1;exitY=0.48;entryX=0;entryY=0.5;" edge="1" parent="1" source="14" target="2">
          <mxGeometry relative="1" as="geometry">
            <Array as="points" />
          </mxGeometry>
        </mxCell>
      </root>
    </mxGraphModel>
  </diagram>
</mxfile>
